<svg xmlns="http://www.w3.org/2000/svg" width="95" height="44" viewBox="0 0 99 18" fill="none">
    <path d="M0.708984 17V14.9697L2.36328 14.6367V3.7334L0.708984 3.40039V1.35938H2.36328H8.22852C9.45312 1.35938 10.5094 1.57422 11.3975 2.00391C12.2926 2.42643 12.9801 3.02083 13.46 3.78711C13.9398 4.54622 14.1797 5.43424 14.1797 6.45117C14.1797 7.46094 13.9398 8.34538 13.46 9.10449C12.9801 9.86361 12.2926 10.4544 11.3975 10.877C10.5094 11.2995 9.45312 11.5107 8.22852 11.5107H5.80078V14.6367L7.44434 14.9697V17H0.708984ZM5.80078 8.86816H8.22852C9.05924 8.86816 9.68587 8.64258 10.1084 8.19141C10.5309 7.74023 10.7422 7.16732 10.7422 6.47266C10.7422 5.74935 10.5309 5.15495 10.1084 4.68945C9.68587 4.22396 9.05924 3.99121 8.22852 3.99121H5.80078V8.86816ZM20.668 17.2256C19.4935 17.2256 18.4873 16.9785 17.6494 16.4844C16.8187 15.9831 16.1813 15.2884 15.7373 14.4004C15.3005 13.5052 15.082 12.4704 15.082 11.2959V11.0811C15.082 9.9209 15.3005 8.89681 15.7373 8.00879C16.1813 7.12077 16.8187 6.42611 17.6494 5.9248C18.4801 5.41634 19.4792 5.16211 20.6465 5.16211C21.8138 5.16211 22.8128 5.41276 23.6436 5.91406C24.4743 6.41536 25.1081 7.11003 25.5449 7.99805C25.9889 8.88607 26.2109 9.91374 26.2109 11.0811V11.2959C26.2109 12.4632 25.9889 13.4945 25.5449 14.3896C25.1081 15.2777 24.4743 15.9723 23.6436 16.4736C22.82 16.9749 21.8281 17.2256 20.668 17.2256ZM20.668 14.6045C21.1693 14.6045 21.5739 14.4684 21.8818 14.1963C22.1969 13.9242 22.4261 13.541 22.5693 13.0469C22.7197 12.5527 22.7949 11.9691 22.7949 11.2959V11.0811C22.7949 10.4294 22.7197 9.86003 22.5693 9.37305C22.4261 8.87891 22.1969 8.49219 21.8818 8.21289C21.5667 7.93359 21.1549 7.79395 20.6465 7.79395C20.1452 7.79395 19.737 7.93359 19.4219 8.21289C19.1068 8.49219 18.8776 8.87891 18.7344 9.37305C18.5911 9.86003 18.5195 10.4294 18.5195 11.0811V11.2959C18.5195 11.9691 18.5911 12.5563 18.7344 13.0576C18.8776 13.5518 19.1068 13.9349 19.4219 14.207C19.737 14.472 20.1523 14.6045 20.668 14.6045ZM27.4355 17V14.9697L28.875 14.6367V7.75098L27.2314 7.41797V5.37695H32.3125V14.6367L33.752 14.9697V17H27.4355ZM28.7676 3.0459V0.242188H32.3125V3.0459H28.7676ZM34.5146 17V14.9697L35.9541 14.6367V7.75098L34.3105 7.41797V5.37695H39.1768L39.3164 7.02051C39.7031 6.43327 40.1794 5.97852 40.7451 5.65625C41.3109 5.32682 41.9554 5.16211 42.6787 5.16211C43.7959 5.16211 44.6768 5.53092 45.3213 6.26855C45.9658 7.00618 46.2881 8.16992 46.2881 9.75977V14.6367L47.7168 14.9697V17H41.6045V14.9697L42.8398 14.6367V9.75977C42.8398 9.05794 42.6966 8.56022 42.4102 8.2666C42.1309 7.96582 41.7227 7.81543 41.1855 7.81543C40.7845 7.81543 40.4336 7.89779 40.1328 8.0625C39.8392 8.22005 39.5921 8.44922 39.3916 8.75V14.6367L40.5088 14.9697V17H34.5146ZM52.959 17.2363C51.8132 17.2363 50.9359 16.9284 50.3271 16.3125C49.7184 15.6895 49.4141 14.7048 49.4141 13.3584V7.77246H47.8887V5.37695H49.4141V2.51953H52.8301V5.37695H54.8604V7.77246H52.8301V13.3477C52.8301 13.763 52.9196 14.0602 53.0986 14.2393C53.2848 14.4111 53.5355 14.4971 53.8506 14.4971C54.0081 14.4971 54.1693 14.4863 54.334 14.4648C54.4987 14.4434 54.6491 14.4219 54.7852 14.4004L55.043 16.9248C54.7207 17.0179 54.3805 17.0931 54.0225 17.1504C53.6715 17.2077 53.3171 17.2363 52.959 17.2363ZM61.5205 17.2256C60.3962 17.2256 59.415 16.9821 58.5771 16.4951C57.7393 16.001 57.0876 15.3278 56.6221 14.4756C56.1637 13.6162 55.9346 12.6423 55.9346 11.5537V11.1348C55.9346 9.97461 56.1458 8.94336 56.5684 8.04102C56.9909 7.13867 57.5996 6.43327 58.3945 5.9248C59.1895 5.40918 60.1419 5.15495 61.252 5.16211C62.3047 5.16211 63.1927 5.36621 63.916 5.77441C64.6393 6.18262 65.1872 6.7806 65.5596 7.56836C65.9391 8.34896 66.1289 9.30143 66.1289 10.4258V12.252H59.501L59.4902 12.3164C59.5332 12.7604 59.6549 13.1543 59.8555 13.498C60.0632 13.8346 60.346 14.1032 60.7041 14.3037C61.0693 14.5042 61.5133 14.6045 62.0361 14.6045C62.5732 14.6045 63.0817 14.54 63.5615 14.4111C64.0485 14.2822 64.5391 14.0817 65.0332 13.8096L65.8926 15.9043C65.3913 16.2839 64.7682 16.599 64.0234 16.8496C63.2858 17.1003 62.4515 17.2256 61.5205 17.2256ZM59.5117 10.0498H62.9492V9.77051C62.9492 9.3265 62.8955 8.95052 62.7881 8.64258C62.6878 8.32747 62.516 8.08757 62.2725 7.92285C62.0361 7.75814 61.721 7.67578 61.3271 7.67578C60.9261 7.67578 60.5967 7.77604 60.3389 7.97656C60.0811 8.17708 59.8841 8.4528 59.748 8.80371C59.6191 9.15462 59.5296 9.55208 59.4795 9.99609L59.5117 10.0498ZM67.8369 17V14.9697L69.2656 14.6367V7.75098L67.6328 7.41797V5.37695H72.4883L72.5957 6.80566L72.6172 7.08496C72.8893 6.43327 73.2259 5.94987 73.627 5.63477C74.028 5.31966 74.5221 5.16211 75.1094 5.16211C75.2812 5.16211 75.4746 5.17643 75.6895 5.20508C75.9115 5.23372 76.1191 5.27669 76.3125 5.33398L75.958 8.49219L74.3789 8.41699C73.9635 8.39551 73.6341 8.4528 73.3906 8.58887C73.1471 8.72493 72.918 8.93262 72.7031 9.21191V14.6367L74.1426 14.9697V17H67.8369ZM82.21 17.2256C81.3219 17.2256 80.4912 17.1432 79.7178 16.9785C78.9515 16.8138 78.2389 16.5811 77.5801 16.2803L77.5371 12.832H79.8896L80.3193 14.5078C80.5199 14.6152 80.7526 14.7048 81.0176 14.7764C81.2826 14.848 81.5905 14.8838 81.9414 14.8838C82.6003 14.8838 83.0586 14.7835 83.3164 14.583C83.5742 14.3825 83.7031 14.1354 83.7031 13.8418C83.7031 13.5553 83.5599 13.2975 83.2734 13.0684C82.987 12.8392 82.4033 12.6423 81.5225 12.4775C80.1546 12.1982 79.1449 11.7507 78.4932 11.1348C77.8486 10.5117 77.5264 9.72396 77.5264 8.77148C77.5264 8.12695 77.6839 7.53613 77.999 6.99902C78.3141 6.45475 78.8083 6.0179 79.4814 5.68848C80.1618 5.35189 81.0462 5.18359 82.1348 5.18359C83.0085 5.18359 83.8249 5.26595 84.584 5.43066C85.3431 5.58822 85.9733 5.79232 86.4746 6.04297L86.4854 9.37305H84.1436L83.8105 7.86914C83.6315 7.74023 83.4238 7.64355 83.1875 7.5791C82.9512 7.50749 82.6862 7.47168 82.3926 7.47168C81.877 7.47168 81.4867 7.57194 81.2217 7.77246C80.9639 7.97298 80.835 8.22721 80.835 8.53516C80.835 8.71419 80.8851 8.88965 80.9854 9.06152C81.0928 9.22624 81.2933 9.38379 81.5869 9.53418C81.8805 9.67741 82.3138 9.81348 82.8867 9.94238C84.276 10.2503 85.3001 10.6729 85.959 11.21C86.625 11.7471 86.958 12.5277 86.958 13.5518C86.958 14.6618 86.557 15.5534 85.7549 16.2266C84.9528 16.8926 83.7712 17.2256 82.21 17.2256ZM93.3604 17.2256C92.4723 17.2256 91.6416 17.1432 90.8682 16.9785C90.1019 16.8138 89.3893 16.5811 88.7305 16.2803L88.6875 12.832H91.04L91.4697 14.5078C91.6702 14.6152 91.903 14.7048 92.168 14.7764C92.4329 14.848 92.7409 14.8838 93.0918 14.8838C93.7507 14.8838 94.209 14.7835 94.4668 14.583C94.7246 14.3825 94.8535 14.1354 94.8535 13.8418C94.8535 13.5553 94.7103 13.2975 94.4238 13.0684C94.1374 12.8392 93.5537 12.6423 92.6729 12.4775C91.305 12.1982 90.2952 11.7507 89.6436 11.1348C88.999 10.5117 88.6768 9.72396 88.6768 8.77148C88.6768 8.12695 88.8343 7.53613 89.1494 6.99902C89.4645 6.45475 89.9587 6.0179 90.6318 5.68848C91.3122 5.35189 92.1966 5.18359 93.2852 5.18359C94.1589 5.18359 94.9753 5.26595 95.7344 5.43066C96.4935 5.58822 97.1237 5.79232 97.625 6.04297L97.6357 9.37305H95.2939L94.9609 7.86914C94.7819 7.74023 94.5742 7.64355 94.3379 7.5791C94.1016 7.50749 93.8366 7.47168 93.543 7.47168C93.0273 7.47168 92.637 7.57194 92.3721 7.77246C92.1143 7.97298 91.9854 8.22721 91.9854 8.53516C91.9854 8.71419 92.0355 8.88965 92.1357 9.06152C92.2432 9.22624 92.4437 9.38379 92.7373 9.53418C93.0309 9.67741 93.4642 9.81348 94.0371 9.94238C95.4264 10.2503 96.4505 10.6729 97.1094 11.21C97.7754 11.7471 98.1084 12.5277 98.1084 13.5518C98.1084 14.6618 97.7074 15.5534 96.9053 16.2266C96.1032 16.8926 94.9215 17.2256 93.3604 17.2256Z" fill="black"/>
    </svg>